<svg width="96" height="96" viewBox="0 0 96 96" fill="none" xmlns="http://www.w3.org/2000/svg">
<rect width="96" height="96" rx="48" fill="white"/>
<path d="M28.7467 22.2322L26.9789 20.4645L25.2111 22.2322L21.2322 26.2111L19.4645 27.9789L21.2322 29.7467L39.9856 48.5L21.2322 67.2533L19.4645 69.0211L21.2322 70.7889L25.2111 74.7678L26.9789 76.5355L28.7467 74.7678L47.5 56.0144L66.2533 74.7678L68.0211 76.5355L69.7889 74.7678L73.7678 70.7889L75.5355 69.0211L73.7678 67.2533L55.0144 48.5L73.7678 29.7467L75.5355 27.9789L73.7678 26.2111L69.7889 22.2322L68.0211 20.4645L66.2533 22.2322L47.5 40.9856L28.7467 22.2322Z" fill="#E10606" stroke="#E10606" stroke-width="5"/>
</svg>
