<svg width="84" height="84" viewBox="0 0 84 84" fill="none" xmlns="http://www.w3.org/2000/svg">
<path d="M14.5959 5.40411L12.8281 3.63634L11.0604 5.40411L5.40411 11.0604L3.63634 12.8281L5.40411 14.5959L32.8082 42L5.40411 69.4041L3.63634 71.1719L5.40411 72.9396L11.0604 78.5959L12.8281 80.3637L14.5959 78.5959L42 51.1918L69.4041 78.5959L71.1719 80.3637L72.9396 78.5959L78.5959 72.9396L80.3637 71.1719L78.5959 69.4041L51.1918 42L78.5959 14.5959L80.3637 12.8281L78.5959 11.0604L72.9396 5.40411L71.1719 3.63634L69.4041 5.40411L42 32.8082L14.5959 5.40411Z" fill="#E10606" stroke="black" stroke-width="5"/>
</svg>
